<!--?xml version="1.0" standalone="no"?-->
<svg id="sw-js-blob-svg" viewBox="0 0 100 100" xmlns="http://www.w3.org/2000/svg">
    <defs>
        <linearGradient id="sw-gradient" x1="0" x2="1" y1="1" y2="0">
            <stop id="stop1" stop-color="rgba(248, 117, 55, 1)" offset="0%"></stop>
            <stop id="stop2" stop-color="rgba(251, 168, 31, 1)" offset="100%"></stop>
        </linearGradient>
    </defs>
    <path fill="url(#sw-gradient)"
        d="M24,-35.3C31.5,-32.6,38.2,-26.5,39.9,-19.3C41.5,-12,38.1,-3.5,36.2,4.8C34.4,13.1,34.1,21.2,30.2,26.8C26.3,32.4,18.8,35.6,11.2,37.5C3.6,39.4,-4.2,40.1,-10.7,37.6C-17.1,35.1,-22.3,29.5,-27.5,23.7C-32.7,18,-37.9,12.1,-40.7,4.7C-43.4,-2.6,-43.8,-11.4,-40.9,-19C-37.9,-26.6,-31.7,-33.1,-24.3,-36C-17,-38.8,-8.5,-37.9,-0.1,-37.7C8.3,-37.5,16.5,-38.1,24,-35.3Z"
        width="100%" height="100%" transform="translate(50 50)" stroke-width="0"
        style="transition: all 0.3s ease 0s;"></path>
</svg>